# xmcd CD database file
#
# Track frame offsets:
#	150
#	26695
#	47187
#	68757
#	84385
#	108567
#	128037
#	148417
#	172400
#	197050
#	217747
#	237855
#	257442
#	276435
#	300962
#
# Disc length: 4318 seconds
#
# Revision: 0
# Processed by: cddbd v1.5PL3 Copyright (c) Steve Scherf et al.
# Submitted via: CDex 1.51
#
DISCID=da10dc0f
DTITLE=吉川晃司 - GOLDEN YEAR Vol.?
DYEAR=1999
DGENRE=Rock
TTITLE0=LEVEL WELL
TTITLE1=SOLITUDE
TTITLE2=WALK
TTITLE3=DATE RIPPER
TTITLE4=Black Corvette'98
TTITLE5=HEROIC Rendezvous
TTITLE6=PEEKABOO
TTITLE7=太陽もひとりぼっち
TTITLE8=POSTMAN
TTITLE9=愛にそのまま
TTITLE10=エロス
TTITLE11=アクセル
TTITLE12=SPEED
TTITLE13=星の降る夜に
TTITLE14=KEY 胸のドアを暴け
EXTD=YEAR: 1999
EXTT0=
EXTT1=
EXTT2=
EXTT3=
EXTT4=
EXTT5=
EXTT6=
EXTT7=
EXTT8=
EXTT9=
EXTT10=
EXTT11=
EXTT12=
EXTT13=
EXTT14=
PLAYORDER=
